<svg width="15" height="15" viewBox="0 0 15 15" fill="none" xmlns="http://www.w3.org/2000/svg">
<path d="M13.9525 13.2663L10.8588 10.1725C11.6852 9.19039 12.1832 7.92398 12.1832 6.54302C12.1832 3.42944 9.65077 0.9 6.54015 0.9C3.42657 0.9 0.897131 3.43239 0.897131 6.54302C0.897131 9.65368 3.42949 12.186 6.54015 12.186C7.92112 12.186 9.18752 11.688 10.1697 10.8616L13.2634 13.9554C13.357 14.049 13.4833 14.1 13.608 14.1C13.7307 14.1 13.858 14.0532 13.9532 13.9547C14.1415 13.7657 14.1413 13.455 13.9525 13.2663ZM1.87252 6.54302C1.87252 3.96946 3.96651 1.87827 6.53726 1.87827C9.11082 1.87827 11.202 3.97226 11.202 6.54302C11.202 9.11385 9.11074 11.2106 6.53726 11.2106C3.96659 11.2106 1.87252 9.11665 1.87252 6.54302Z" fill="#9B111E" stroke="#9B111E" stroke-width="0.2"/>
</svg>
